<?xml version="1.0"?>
<svg xmlns="http://www.w3.org/2000/svg" height="512px" viewBox="-120 0 512 512" width="512px"><g><path d="m234.503906 0c-12.761718 0-189.773437 0-197.96875 0-12.84375 0-24.894531 6.871094-31.449218 17.933594-2.125 3.585937-.941407 8.214844 2.644531 10.335937 3.585937 2.125 8.214843.941407 10.339843-2.644531 7.324219-12.359375 20.328126-10.324219 21.238282-10.535156l11.59375 50.191406c1.683594 7.28125 8.078125 12.371094 15.554687 12.371094h138.132813c7.472656 0 13.871094-5.089844 15.554687-12.375l11.589844-50.1875h2.769531c11.828125 0 21.449219 9.621094 21.449219 21.449218v438.921876c0 11.828124-9.621094 21.449218-21.449219 21.449218h-197.964844c-11.824218 0-21.449218-9.621094-21.449218-21.449218v-424.226563c0-4.167969-3.378906-7.546875-7.542969-7.546875-4.167969 0-7.546875 3.378906-7.546875 7.546875v424.226563c0 20.148437 16.390625 36.539062 36.539062 36.539062h197.964844c20.148438 0 36.542969-16.390625 36.542969-36.539062v-438.921876c0-20.148437-16.394531-36.539062-36.542969-36.539062zm-29.914062 62.558594c-146.808594-.292969-138.683594.632812-138.984375-.675782l-10.808594-46.792968h161.449219c-11.488282 48.484375-10.320313 47.46875-11.65625 47.46875zm0 0" data-original="#000000" class="active-path" data-old_color="#000000" fill="#1391AA"/><path d="m84.8125 45.75h64.355469c4.167969 0 7.546875-3.375 7.546875-7.542969s-3.378906-7.546875-7.546875-7.546875h-64.355469c-4.164062 0-7.542969 3.378906-7.542969 7.546875s3.378907 7.542969 7.542969 7.542969zm0 0" data-original="#000000" class="active-path" data-old_color="#000000" fill="#1391AA"/><path d="m186.230469 38.207031c0 5.277344-4.277344 9.558594-9.558594 9.558594-5.277344 0-9.558594-4.28125-9.558594-9.558594 0-5.28125 4.28125-9.558593 9.558594-9.558593 5.28125 0 9.558594 4.277343 9.558594 9.558593zm0 0" data-original="#000000" class="active-path" data-old_color="#000000" fill="#1391AA"/><path d="m124.320312 479.21875h106.28125c8.71875 0 15.8125-7.09375 15.8125-15.8125v-356.691406c0-8.71875-7.09375-15.8125-15.8125-15.8125h-190.15625c-8.722656 0-15.816406 7.09375-15.816406 15.8125v356.691406c0 8.71875 7.09375 15.8125 15.816406 15.8125h53.695313c4.167969 0 7.542969-3.375 7.542969-7.542969 0-4.171875-3.375-7.546875-7.542969-7.546875h-53.695313c-.398437 0-.722656-.324218-.722656-.722656v-230.378906h191.597656v230.378906c0 .398438-.324218.722656-.722656.722656h-106.277344c-4.164062 0-7.542968 3.375-7.542968 7.546875 0 4.167969 3.378906 7.542969 7.542968 7.542969zm-84.597656-261.28125v-111.222656c0-.398438.324219-.722656.722656-.722656h190.15625c.398438 0 .722657.324218.722657.722656v111.222656zm0 0" data-original="#000000" class="active-path" data-old_color="#000000" fill="#1391AA"/><path d="m184.554688 112.953125c-4.167969 0-7.542969 3.378906-7.542969 7.546875v19.335938h-3.066407v-19.335938c0-4.167969-3.378906-7.546875-7.546874-7.546875-4.164063 0-7.542969 3.378906-7.542969 7.546875v19.335938h-3.066407v-19.335938c0-4.167969-3.375-7.546875-7.542968-7.546875-4.167969 0-7.546875 3.378906-7.546875 7.546875v31.066406c0 11.546875 7.65625 21.335938 18.15625 24.570313v28.738281c0 4.167969 3.378906 7.546875 7.542969 7.546875 4.167968 0 7.546874-3.378906 7.546874-7.546875v-28.738281c10.5-3.234375 18.15625-13.023438 18.15625-24.570313v-31.066406c0-4.167969-3.378906-7.546875-7.546874-7.546875zm-18.152344 49.222656c-4.675782 0-8.648438-3.042969-10.058594-7.25h20.113281c-1.410156 4.207031-5.382812 7.25-10.054687 7.25zm0 0" data-original="#000000" class="active-path" data-old_color="#000000" fill="#1391AA"/><path d="m104.734375 113.65625c-.011719 0-.027344 0-.039063 0-7.46875 0-14.355468 4.875-19.398437 13.734375-3.960937 6.957031-6.335937 15.777344-6.355469 23.601563-.035156 14.214843 7.628906 26.277343 18.15625 30.246093v23.632813c0 4.167968 3.378906 7.546875 7.546875 7.546875s7.546875-3.378907 7.546875-7.546875v-23.648438c4.277344-1.601562 8.183594-4.542968 11.257813-8.589844 4.425781-5.828124 6.875-13.46875 6.894531-21.515624.039062-15.617188-9.683594-37.421876-25.609375-37.460938zm6.695313 49.851562c-7.460938 9.820313-17.425782.113282-17.394532-12.476562.023438-10.492188 6.554688-22.285156 10.660156-22.285156h.003907c5.519531.011718 16.285156 22.183594 6.730469 34.761718zm0 0" data-original="#000000" class="active-path" data-old_color="#000000" fill="#1391AA"/><path d="m140.550781 255.804688h-86.523437c-4.164063 0-7.542969 3.378906-7.542969 7.546874 0 4.167969 3.378906 7.542969 7.542969 7.542969h86.523437c4.167969 0 7.546875-3.375 7.546875-7.542969 0-4.167968-3.378906-7.546874-7.546875-7.546874zm0 0" data-original="#000000" class="active-path" data-old_color="#000000" fill="#1391AA"/><path d="m140.550781 277.9375h-6.035156c-4.167969 0-7.546875 3.378906-7.546875 7.546875s3.378906 7.546875 7.546875 7.546875h6.035156c4.167969 0 7.546875-3.378906 7.546875-7.546875s-3.378906-7.546875-7.546875-7.546875zm0 0" data-original="#000000" class="active-path" data-old_color="#000000" fill="#1391AA"/><path d="m54.027344 293.03125h50.304687c4.167969 0 7.546875-3.378906 7.546875-7.546875s-3.378906-7.546875-7.546875-7.546875h-50.304687c-4.164063 0-7.542969 3.378906-7.542969 7.546875s3.378906 7.546875 7.542969 7.546875zm0 0" data-original="#000000" class="active-path" data-old_color="#000000" fill="#1391AA"/><path d="m170.425781 301.730469h43.234375c6.011719 0 10.902344-4.886719 10.902344-10.898438v-32.832031c0-6.007812-4.890625-10.898438-10.902344-10.898438h-43.234375c-6.011719 0-10.898437 4.890626-10.898437 10.898438v32.832031c0 6.011719 4.886718 10.898438 10.898437 10.898438zm4.191407-39.535157h34.851562v24.445313h-34.851562zm0 0" data-original="#000000" class="active-path" data-old_color="#000000" fill="#1391AA"/><path d="m54.027344 344.011719h86.523437c4.167969 0 7.546875-3.375 7.546875-7.542969s-3.378906-7.546875-7.546875-7.546875h-86.523437c-4.164063 0-7.542969 3.378906-7.542969 7.546875s3.378906 7.542969 7.542969 7.542969zm0 0" data-original="#000000" class="active-path" data-old_color="#000000" fill="#1391AA"/><path d="m54.027344 366.148438h86.523437c4.167969 0 7.546875-3.378907 7.546875-7.546876 0-4.167968-3.378906-7.546874-7.546875-7.546874h-86.523437c-4.164063 0-7.542969 3.378906-7.542969 7.546874 0 4.167969 3.378906 7.546876 7.542969 7.546876zm0 0" data-original="#000000" class="active-path" data-old_color="#000000" fill="#1391AA"/><path d="m159.527344 363.949219c0 6.011719 4.886718 10.898437 10.898437 10.898437h43.234375c6.011719 0 10.902344-4.886718 10.902344-10.898437v-32.828125c0-6.011719-4.890625-10.902344-10.902344-10.902344h-43.234375c-6.011719 0-10.898437 4.890625-10.898437 10.902344zm15.089844-28.636719h34.851562v24.445312h-34.851562zm0 0" data-original="#000000" class="active-path" data-old_color="#000000" fill="#1391AA"/><path d="m54.027344 417.132812h86.523437c4.167969 0 7.546875-3.378906 7.546875-7.546874 0-4.167969-3.378906-7.546876-7.546875-7.546876h-86.523437c-4.164063 0-7.542969 3.378907-7.542969 7.546876 0 4.167968 3.378906 7.546874 7.542969 7.546874zm0 0" data-original="#000000" class="active-path" data-old_color="#000000" fill="#1391AA"/><path d="m54.027344 439.265625h86.523437c4.167969 0 7.546875-3.378906 7.546875-7.546875s-3.378906-7.546875-7.546875-7.546875h-86.523437c-4.164063 0-7.542969 3.378906-7.542969 7.546875s3.378906 7.546875 7.542969 7.546875zm0 0" data-original="#000000" class="active-path" data-old_color="#000000" fill="#1391AA"/><path d="m159.527344 437.070312c0 6.007813 4.886718 10.898438 10.898437 10.898438h43.234375c6.011719 0 10.902344-4.890625 10.902344-10.898438v-32.832031c0-6.011719-4.890625-10.898437-10.902344-10.898437h-43.234375c-6.011719 0-10.898437 4.886718-10.898437 10.898437zm15.089844-28.640624h34.851562v24.445312h-34.851562zm0 0" data-original="#000000" class="active-path" data-old_color="#000000" fill="#1391AA"/></g> </svg>
