<svg height="512" viewBox="0 0 512 512" width="512" xmlns="http://www.w3.org/2000/svg"><path d="m496 272h-296.29a8 8 0 0 0 0 16h296.29a16.061 16.061 0 0 1 -16 16h-152.846c-.1 0-.2 0-.3 0h-294.854a16.061 16.061 0 0 1 -16-16h119.71a8 8 0 1 0 0-16h-119.71a16.021 16.021 0 0 0 -16 16 31.991 31.991 0 0 0 32 32h102.621l-22.621 64a24.04 24.04 0 0 1 -22.628 16h-81.372a8 8 0 0 0 0 16h81.371a40.064 40.064 0 0 0 37.713-26.669l24.458-69.194.047-.137c10.479 0 24.411 3.317 24.411 32v44.725a24.048 24.048 0 0 0 15.928 22.6l95.8 34.212a15.877 15.877 0 0 0 16.036-3.137c.036-.032.071-.063.106-.1a16.194 16.194 0 0 0 2.089-2.3l75.041-101.223a46.614 46.614 0 0 1 37.288-18.777l-94.956 168h-315.332a8 8 0 0 0 0 16h324.668l99.549-176.127a15.844 15.844 0 0 0 -.074-15.873h47.857a31.991 31.991 0 0 0 32-32 16.028 16.028 0 0 0 -16-16zm-264 56v88.648l-34.691-12.39a8.015 8.015 0 0 1 -5.309-7.533v-44.725c0-13.242-2.779-24.028-8.021-32h49.4a23.885 23.885 0 0 0 -1.379 8zm16 94.362v-94.362a8 8 0 0 1 16 0v32a8 8 0 0 0 16 0v-32a23.885 23.885 0 0 0 -1.376-8h26.022l-42.5 107.414zm44.307 15.823-15.084-5.385 42.627-107.738a8 8 0 1 1 14.88 5.884zm75.836-100.937-40.095 54.086 21.565-54.514a23.913 23.913 0 0 0 .31-16.82h37.892a62.344 62.344 0 0 0 -19.672 17.248z"/><circle cx="167.71" cy="280" r="8"/><path d="m168.71 64.99a8.01 8.01 0 0 0 3.01-.591 222.807 222.807 0 0 1 84.28-16.399h.03a223.244 223.244 0 0 1 222.78 200.819 7.976 7.976 0 0 0 7.95 7.181 7.687 7.687 0 0 0 .83-.04 8.01 8.01 0 0 0 7.139-8.78l-.009-.04a239.771 239.771 0 0 0 -206.72-213.017v-18.123h8a8 8 0 0 0 0-16h-80a8 8 0 0 0 0 16h8v18.138c-4.926.656-9.827 1.445-14.68 2.4a238.163 238.163 0 0 0 -43.63 13.04 8 8 0 0 0 3.02 15.41zm71.29-48.99h32v16.532q-7.96-.522-16-.532h-.02c-5.332 0-10.663.191-15.98.542z"/><path d="m139.99 79.05a7.923 7.923 0 0 0 4-1.08l.16-.09a8.017 8.017 0 0 0 2.76-10.84 8.013 8.013 0 0 0 -10.93-2.92l-.03.02a8.012 8.012 0 0 0 -2.89 10.92 8.037 8.037 0 0 0 6.93 3.99z"/><path d="m24.41 255.96a7.687 7.687 0 0 0 .83.04 7.977 7.977 0 0 0 7.95-7.181 224.151 224.151 0 0 1 85.2-153.579 8 8 0 0 0 -4.92-14.31 7.9 7.9 0 0 0 -4.91 1.69l-.02.01a241.162 241.162 0 0 0 -68.81 85.189 238.1 238.1 0 0 0 -22.46 79.361 8 8 0 0 0 7.14 8.78z"/><path d="m281.28 112a46.783 46.783 0 0 1 34.46 14.93 8 8 0 1 0 11.79-10.821l-.01-.009a61.3 61.3 0 0 0 -20.48-14.68 63.037 63.037 0 0 0 -25.76-5.42 62.383 62.383 0 0 0 -41.78 15.979 62.383 62.383 0 0 0 -41.78-15.979 64.707 64.707 0 0 0 -10.77.9 8 8 0 0 0 1.33 15.891 7.684 7.684 0 0 0 1.35-.11 48.342 48.342 0 0 1 8.09-.68 46.351 46.351 0 0 1 35.64 16.609l6.14 7.361 6.14-7.361a46.351 46.351 0 0 1 35.64-16.61z"/><path d="m144.83 138.35a7.994 7.994 0 0 0 -7.85 6.53 57.987 57.987 0 0 0 -.98 10.6 72.134 72.134 0 0 0 4.3 24.611 80.672 80.672 0 0 0 11.24 20.68 117.448 117.448 0 0 0 24.31 23.81 182.172 182.172 0 0 0 26.79 16.3 214.131 214.131 0 0 0 34.28 13.7 8 8 0 1 0 4.43-15.37 198.315 198.315 0 0 1 -47.85-21.88c-12.41-7.96-22.2-16.73-29.1-26.08-8.33-11.28-12.38-22.98-12.4-35.771a41.763 41.763 0 0 1 .71-7.66 8.005 8.005 0 0 0 -6.4-9.329 8.148 8.148 0 0 0 -1.48-.141z"/><path d="m160.03 126.79a7.988 7.988 0 1 0 -5.82-2.5 7.947 7.947 0 0 0 5.82 2.5z"/><path d="m248.7 215.13c6.97 10.36 17.239 19.26 31.39 27.2a153.085 153.085 0 0 0 26.19 11.44 8.134 8.134 0 0 0 1.539.33 7.983 7.983 0 0 0 3.671.9 8.219 8.219 0 0 0 2.14-.29c.019 0 .07-.021.15-.04a146.232 146.232 0 0 0 33.92-15.15c10.25-6.34 18.15-13.19 24.14-20.96a57.633 57.633 0 0 0 8.4-14.911 50.906 50.906 0 0 0 3.26-17.979 41.077 41.077 0 0 0 -3.51-16.66 42.181 42.181 0 0 0 -9.5-13.51 43.992 43.992 0 0 0 -13.97-9.03 45.037 45.037 0 0 0 -17.01-3.3h-.02a44.412 44.412 0 0 0 -27.99 9.88 44.418 44.418 0 0 0 -27.99-9.88h-.02a45.042 45.042 0 0 0 -17.011 3.3 43.888 43.888 0 0 0 -13.969 9.03 42.181 42.181 0 0 0 -9.5 13.51 41.06 41.06 0 0 0 -3.51 16.66 50.594 50.594 0 0 0 2.53 15.89 55 55 0 0 0 6.67 13.57zm14.88-48.08a28.807 28.807 0 0 1 41.779 2.309l6.141 7.351 6.14-7.351a28.808 28.808 0 0 1 41.78-2.309 25.769 25.769 0 0 1 8.08 18.62c-.021 8.24-2.75 15.809-8.34 23.13-8.75 11.46-23.1 19.389-30.88 23.1a138.868 138.868 0 0 1 -13.551 5.641c-1.109.4-2.2.77-3.239 1.1l-.27-.09c-4.38-1.41-19.7-6.75-33.04-16.31a63.286 63.286 0 0 1 -16.18-16.012 36.314 36.314 0 0 1 -6.5-20.559 25.713 25.713 0 0 1 8.08-18.62z"/></svg>